<svg width="264" height="40" viewBox="0 0 264 40" fill="none" xmlns="http://www.w3.org/2000/svg">
<rect y="16" width="48" height="8" rx="4" fill="white"/>
<rect x="54" y="16" width="48" height="8" rx="4" fill="white"/>
<rect x="112" width="40" height="40" rx="20" fill="#71B2C9"/>
<path d="M144.668 14.5323H143.796V13.3861C143.796 12.2893 142.907 11.3963 141.806 11.3963L119.99 11.394C118.893 11.394 118 12.2829 118 13.3843V24.2321C118 28.8551 121.751 32.6062 126.374 32.6062H135.412C139.711 32.6062 143.254 29.3651 143.732 25.1964H144.664C146.14 25.1964 147.472 24.5986 148.436 23.6325C149.402 22.6664 150 21.3338 150 19.86C150 16.9164 147.614 14.5323 144.668 14.5323ZM146.917 22.0874C146.347 22.6573 145.556 23.0087 144.691 23.0087H143.798L143.795 16.7149H144.689C146.428 16.7149 147.836 18.1243 147.836 19.8618C147.838 20.7338 147.48 21.5175 146.917 22.0874Z" fill="#730B12"/>
<path d="M126.883 22.3616C126.521 20.9627 127.316 19.1484 128.946 17.9081C130.745 16.5435 132.95 16.3507 134.149 17.3702C133.843 17.426 133.492 17.5073 133.123 17.6271C131.643 18.1197 130.613 19.0364 130.15 20.2813C129.728 21.4165 128.899 22.2112 127.925 22.4087C127.552 22.4946 127.19 22.4731 126.884 22.3616H126.883Z" fill="white"/>
<path d="M132.849 23.0429C131.067 24.3966 128.891 24.6004 127.682 23.6128C127.841 23.6023 128 23.5808 128.16 23.5466C128.803 23.4159 129.415 23.0969 129.936 22.6362C130.506 22.1308 130.945 21.4731 131.236 20.6848C131.577 19.7745 132.322 19.121 133.462 18.7334C134.021 18.547 134.541 18.4697 134.865 18.4377C135.329 19.8581 134.539 21.7601 132.849 23.0434L132.849 23.0429Z" fill="white"/>
<rect opacity="0.5" x="162" y="16" width="48" height="8" rx="4" fill="white"/>
<rect opacity="0.5" x="216" y="16" width="48" height="8" rx="4" fill="white"/>
</svg>
